<svg version="1.1" xmlns="http://www.w3.org/2000/svg" xmlns:xlink="http://www.w3.org/1999/xlink" width="447" height="355"><defs/><g><g transform="translate(-238,-1134) scale(1,1)"><path fill="#000000" stroke="none" d="M 248 1281.5 C 248 1276.2532944 252.2532944 1272 257.5 1272 C 262.7467056 1272 267 1276.2532944 267 1281.5 C 267 1286.7467056 262.7467056 1291 257.5 1291 C 252.2532944 1291 248 1286.7467056 248 1281.5 Z"/></g><g transform="translate(-238,-1134) scale(1,1)"><path fill="#ffffff" stroke="none" d="M 402 1192 L 441 1192 Q 451 1192 451 1202 L 451 1221 Q 451 1231 441 1231 L 402 1231 Q 392 1231 392 1221 L 392 1202 Q 392 1192 402 1192 Z"/></g><g transform="translate(-238,-1134) scale(1,1)"><path fill="none" stroke="#000000" d="M 402 1192 L 441 1192 Q 451 1192 451 1202 L 451 1221 Q 451 1231 441 1231 L 402 1231 Q 392 1231 392 1221 L 392 1202 Q 392 1192 402 1192 Z" stroke-miterlimit="10"/></g><g transform="translate(-238,-1134) scale(1,1)"><g><path fill="none" stroke="none"/><text fill="#000000" stroke="none" font-family="Arial" font-size="13px" font-style="normal" font-weight="bold" text-decoration="none" x="402.7109375" y="1211.5">Ready</text></g></g><g transform="translate(-238,-1134) scale(1,1)"><path fill="none" stroke="#000000" d="M 268 1283 Q 296 1288 351 1276 Q 406 1264 415 1232" stroke-miterlimit="10"/></g><g transform="translate(-238,-1134) scale(1,1)"><path fill="none" stroke="#000000" d="M 416.3007969580629 1242.9228168195707 L 415 1232 L 408.1962045072163 1240.64340019277" stroke-miterlimit="10"/></g><g transform="translate(-238,-1134) scale(1,1)"><g><path fill="none" stroke="none"/><text fill="#000000" stroke="none" font-family="Arial" font-size="13px" font-style="normal" font-weight="normal" text-decoration="none" x="339.94091796875" y="1267.5">on</text></g></g><g transform="translate(-238,-1134) scale(1,1)"><path fill="#ffffff" stroke="none" d="M 554 1192 L 593 1192 Q 603 1192 603 1202 L 603 1221 Q 603 1231 593 1231 L 554 1231 Q 544 1231 544 1221 L 544 1202 Q 544 1192 554 1192 Z"/></g><g transform="translate(-238,-1134) scale(1,1)"><path fill="none" stroke="#000000" d="M 554 1192 L 593 1192 Q 603 1192 603 1202 L 603 1221 Q 603 1231 593 1231 L 554 1231 Q 544 1231 544 1221 L 544 1202 Q 544 1192 554 1192 Z" stroke-miterlimit="10"/></g><g transform="translate(-238,-1134) scale(1,1)"><g><path fill="none" stroke="none"/><text fill="#000000" stroke="none" font-family="Arial" font-size="13px" font-style="normal" font-weight="bold" text-decoration="none" x="563.74365234375" y="1211.5">Set</text></g></g><g transform="translate(-238,-1134) scale(1,1)"><path fill="#ffffff" stroke="none" d="M 626 1296 L 665 1296 Q 675 1296 675 1306 L 675 1325 Q 675 1335 665 1335 L 626 1335 Q 616 1335 616 1325 L 616 1306 Q 616 1296 626 1296 Z"/></g><g transform="translate(-238,-1134) scale(1,1)"><path fill="none" stroke="#000000" d="M 626 1296 L 665 1296 Q 675 1296 675 1306 L 675 1325 Q 675 1335 665 1335 L 626 1335 Q 616 1335 616 1325 L 616 1306 Q 616 1296 626 1296 Z" stroke-miterlimit="10"/></g><g transform="translate(-238,-1134) scale(1,1)"><g><path fill="none" stroke="none"/><text fill="#000000" stroke="none" font-family="Arial" font-size="13px" font-style="normal" font-weight="bold" text-decoration="none" x="632.5" y="1315.5">Wait</text></g></g><g transform="translate(-238,-1134) scale(1,1)"><path fill="#ffffff" stroke="none" d="M 362 1440 L 401 1440 Q 411 1440 411 1450 L 411 1469 Q 411 1479 401 1479 L 362 1479 Q 352 1479 352 1469 L 352 1450 Q 352 1440 362 1440 Z"/></g><g transform="translate(-238,-1134) scale(1,1)"><path fill="none" stroke="#000000" d="M 362 1440 L 401 1440 Q 411 1440 411 1450 L 411 1469 Q 411 1479 401 1479 L 362 1479 Q 352 1479 352 1469 L 352 1450 Q 352 1440 362 1440 Z" stroke-miterlimit="10"/></g><g transform="translate(-238,-1134) scale(1,1)"><g><path fill="none" stroke="none"/><text fill="#000000" stroke="none" font-family="Arial" font-size="13px" font-style="normal" font-weight="bold" text-decoration="none" x="370.66455078125" y="1459.5">Acc</text></g></g><g transform="translate(-238,-1134) scale(1,1)"><path fill="none" stroke="#000000" d="M 391 1217 Q 280 1240 263 1271" stroke-miterlimit="10"/></g><g transform="translate(-238,-1134) scale(1,1)"><path fill="none" stroke="#000000" d="M 264.19558808564057 1260.0651671649964 L 263 1271 L 271.5775028916347 1264.1133139940898" stroke-miterlimit="10"/></g><g transform="translate(-238,-1134) scale(1,1)"><g><path fill="none" stroke="none"/><text fill="#000000" stroke="none" font-family="Arial" font-size="13px" font-style="normal" font-weight="normal" text-decoration="none" x="280.94091796875" y="1236.5">on</text></g></g><g transform="translate(-238,-1134) scale(1,1)"><path fill="none" stroke="#000000" d="M 452 1211 L 543 1211" stroke-miterlimit="10"/></g><g transform="translate(-238,-1134) scale(1,1)"><path fill="none" stroke="#000000" d="M 532.8373251423759 1215.2095177560159 L 543 1211 L 532.8373251423758 1206.7904822439841" stroke-miterlimit="10"/></g><g transform="translate(-238,-1134) scale(1,1)"><g><path fill="none" stroke="none"/><text fill="#000000" stroke="none" font-family="Arial" font-size="13px" font-style="normal" font-weight="normal" text-decoration="none" x="488.364013671875" y="1202.5">set</text></g></g><g transform="translate(-238,-1134) scale(1,1)"><path fill="none" stroke="#000000" d="M 588 1232 L 631 1295" stroke-miterlimit="10"/></g><g transform="translate(-238,-1134) scale(1,1)"><path fill="none" stroke="#000000" d="M 621.7940067932972 1288.9792285313142 L 631 1295 L 628.7477081094654 1284.233051442501" stroke-miterlimit="10"/></g><g transform="translate(-238,-1134) scale(1,1)"><g><path fill="none" stroke="none"/><text fill="#000000" stroke="none" font-family="Arial" font-size="13px" font-style="normal" font-weight="normal" text-decoration="none" x="608.220458984375" y="1260.5">brake</text></g></g><g transform="translate(-238,-1134) scale(1,1)"><path fill="none" stroke="#000000" d="M 649 1295 Q 664 1224 656 1216 Q 648 1208 604 1210" stroke-miterlimit="10"/></g><g transform="translate(-238,-1134) scale(1,1)"><path fill="none" stroke="#000000" d="M 613.9610481122565 1205.3333608983219 L 604 1210 L 614.343336822049 1213.743712513755" stroke-miterlimit="10"/></g><g transform="translate(-238,-1134) scale(1,1)"><g><path fill="none" stroke="none"/><text fill="#000000" stroke="none" font-family="Arial" font-size="13px" font-style="normal" font-weight="normal" text-decoration="none" x="619.029541015625" y="1204.5">resume</text></g></g><g transform="translate(-238,-1134) scale(1,1)"><path fill="none" stroke="#000000" d="M 367 1439 L 265 1292" stroke-miterlimit="10"/></g><g transform="translate(-238,-1134) scale(1,1)"><path fill="none" stroke="#000000" d="M 274.2520431690463 1297.949764465767 L 265 1292 L 267.33506366445675 1302.74930126487" stroke-miterlimit="10"/></g><g transform="translate(-238,-1134) scale(1,1)"><g><path fill="none" stroke="none"/><text fill="#000000" stroke="none" font-family="Arial" font-size="13px" font-style="normal" font-weight="normal" text-decoration="none" x="295.341796875" y="1379.5">on</text></g></g><g transform="translate(-238,-1134) scale(1,1)"><path fill="none" stroke="#000000" d="M 543 1221 Q 488 1240 456 1276 Q 424 1312 387 1439" stroke-miterlimit="10"/></g><g transform="translate(-238,-1134) scale(1,1)"><path fill="none" stroke="#000000" d="M 385.80110539740485 1428.0655291974476 L 387 1439 L 393.88409194974804 1430.420415043406" stroke-miterlimit="10"/></g><g transform="translate(-238,-1134) scale(1,1)"><g><path fill="none" stroke="none"/><text fill="#000000" stroke="none" font-family="Arial" font-size="13px" font-style="normal" font-weight="normal" text-decoration="none" x="406.220458984375" y="1299.5">accP</text></g></g><g transform="translate(-238,-1134) scale(1,1)"><path fill="none" stroke="#000000" d="M 396 1439 L 557 1232" stroke-miterlimit="10"/></g><g transform="translate(-238,-1134) scale(1,1)"><path fill="none" stroke="#000000" d="M 554.0835133377539 1242.6063238470706 L 557 1232 L 547.4379289881614 1237.4375360196098" stroke-miterlimit="10"/></g><g transform="translate(-238,-1134) scale(1,1)"><g><path fill="none" stroke="none"/><text fill="#000000" stroke="none" font-family="Arial" font-size="13px" font-style="normal" font-weight="normal" text-decoration="none" x="449.220458984375" y="1331.5">accR</text></g></g><g transform="translate(-238,-1134) scale(1,1)"><path fill="none" stroke="#000000" d="M 543 1200 Q 392 1144 324 1176 Q 256 1208 257 1271" stroke-miterlimit="10"/></g><g transform="translate(-238,-1134) scale(1,1)"><path fill="none" stroke="#000000" d="M 252.62972046170088 1260.9054144831437 L 257 1271 L 261.0476955750244 1260.7717958305514" stroke-miterlimit="10"/></g><g transform="translate(-238,-1134) scale(1,1)"><g><path fill="none" stroke="none"/><text fill="#000000" stroke="none" font-family="Arial" font-size="13px" font-style="normal" font-weight="normal" text-decoration="none" x="286.5" y="1188.5">on</text></g></g><g transform="translate(-238,-1134) scale(1,1)"><path fill="none" stroke="#000000" d="M 615 1321 Q 464 1352 412 1344 Q 360 1336 268 1287" stroke-miterlimit="10"/></g><g transform="translate(-238,-1134) scale(1,1)"><path fill="none" stroke="#000000" d="M 278.9486166358617 1288.0619763466914 L 268 1287 L 274.9909103916244 1295.4927717440348" stroke-miterlimit="10"/></g><g transform="translate(-238,-1134) scale(1,1)"><g><path fill="none" stroke="none"/><text fill="#000000" stroke="none" font-family="Arial" font-size="13px" font-style="normal" font-weight="normal" text-decoration="none" x="357.5" y="1348.5">on</text></g></g></g></svg>