<svg version="1.1" xmlns="http://www.w3.org/2000/svg" xmlns:xlink="http://www.w3.org/1999/xlink" width="1044.27880859375" height="154"><defs/><g><g transform="translate(-3,-10) scale(1,1)"><rect fill="#C0C0C0" stroke="none" x="47.57275390625" y="137" width="54.525390625" height="24" opacity="0.2"/></g><g transform="translate(-3,-10) scale(1,1)"><rect fill="#ffffff" stroke="none" x="40.57275390625" y="130" width="54.525390625" height="24"/></g><g transform="translate(-3,-10) scale(1,1)"><path fill="none" stroke="#000000" d="M 40.57275390625 130 L 95.09814453125 130 L 95.09814453125 154 L 40.57275390625 154 L 40.57275390625 130 Z Z" stroke-miterlimit="10"/></g><g transform="translate(-3,-10) scale(1,1)"><g><path fill="none" stroke="none"/><text fill="#000000" stroke="none" font-family="Arial" font-size="13px" font-style="normal" font-weight="bold" text-decoration="none" x="46.516845703125" y="149.5">Vehicel</text></g></g><g transform="translate(-3,-10) scale(1,1)"><rect fill="#C0C0C0" stroke="none" x="27" y="82" width="95.6708984375" height="24" opacity="0.2"/></g><g transform="translate(-3,-10) scale(1,1)"><rect fill="#ffffff" stroke="none" x="20" y="75" width="95.6708984375" height="24"/></g><g transform="translate(-3,-10) scale(1,1)"><path fill="none" stroke="#000000" d="M 20 75 L 115.6708984375 75 L 115.6708984375 99 L 20 99 L 20 75 Z Z" stroke-miterlimit="10"/></g><g transform="translate(-3,-10) scale(1,1)"><g><path fill="none" stroke="none"/><text fill="#000000" stroke="none" font-family="Arial" font-size="13px" font-style="normal" font-weight="bold" text-decoration="none" x="28.09912109375" y="94.5">CruiseControl</text></g></g><g transform="translate(-3,-10) scale(1,1)"><path fill="none" stroke="#000000" d="M 67 129 Q 68 115 67 100" stroke-miterlimit="10"/></g><g transform="translate(-3,-10) scale(1,1)"><path fill="#000000" stroke="none" d="M 71.8762054144906 109.86015318114747 L 67 100 L 63.475816737117384 110.42017909297235 L 68.46341823152302 121.9512734728454"/></g><g transform="translate(-3,-10) scale(1,1)"><path fill="none" stroke="#000000" d="M 71.8762054144906 109.86015318114747 L 67 100 L 63.475816737117384 110.42017909297235 L 68.46341823152302 121.9512734728454 L 71.8762054144906 109.86015318114747" stroke-miterlimit="10"/></g><g transform="translate(-3,-10) scale(1,1)"><g><path fill="none" stroke="none"/><text fill="#000000" stroke="none" font-family="Arial" font-size="13px" font-style="normal" font-weight="normal" text-decoration="none" x="12.5" y="121.5">-cruiseControl</text></g></g><g transform="translate(-3,-10) scale(1,1)"><rect fill="#C0C0C0" stroke="none" x="432.16357421875" y="27" width="127.4599609375" height="24" opacity="0.2"/></g><g transform="translate(-3,-10) scale(1,1)"><rect fill="#ffffff" stroke="none" x="425.16357421875" y="20" width="127.4599609375" height="24"/></g><g transform="translate(-3,-10) scale(1,1)"><path fill="none" stroke="#000000" d="M 425.16357421875 20 L 552.62353515625 20 L 552.62353515625 44 L 425.16357421875 44 L 425.16357421875 20 Z Z" stroke-miterlimit="10"/></g><g transform="translate(-3,-10) scale(1,1)"><g><path fill="none" stroke="none"/><text fill="#000000" stroke="none" font-family="Arial" font-size="13px" font-style="normal" font-weight="bold" text-decoration="none" x="433.97998046875" y="39.5">CruiseControlState</text></g></g><g transform="translate(-3,-10) scale(1,1)"><path fill="none" stroke="#000000" d="M 67 74 Q 68 60 424 36" stroke-miterlimit="10"/></g><g transform="translate(-3,-10) scale(1,1)"><path fill="#FFFFFF" stroke="none" d="M 414.1434858050384 40.88355689272888 L 424 36 L 413.5771957787223 32.48358816904006 L 402.0498239190166 37.47978715152697"/></g><g transform="translate(-3,-10) scale(1,1)"><path fill="none" stroke="#000000" d="M 414.1434858050384 40.88355689272888 L 424 36 L 413.5771957787223 32.48358816904006 L 402.0498239190166 37.47978715152697 L 414.1434858050384 40.88355689272888" stroke-miterlimit="10"/></g><g transform="translate(-3,-10) scale(1,1)"><g><path fill="none" stroke="none"/><text fill="#000000" stroke="none" font-family="Arial" font-size="13px" font-style="normal" font-weight="normal" text-decoration="none" x="15.5" y="53.5">-currentState</text></g></g><g transform="translate(-3,-10) scale(1,1)"><rect fill="#C0C0C0" stroke="none" x="153.6708984375" y="82" width="146.22998046875" height="24" opacity="0.2"/></g><g transform="translate(-3,-10) scale(1,1)"><rect fill="#ffffff" stroke="none" x="146.6708984375" y="75" width="146.22998046875" height="24"/></g><g transform="translate(-3,-10) scale(1,1)"><path fill="none" stroke="#000000" d="M 146.6708984375 75 L 292.90087890625 75 L 292.90087890625 99 L 146.6708984375 99 L 146.6708984375 75 Z Z" stroke-miterlimit="10"/></g><g transform="translate(-3,-10) scale(1,1)"><g><path fill="none" stroke="none"/><text fill="#000000" stroke="none" font-family="Arial" font-size="13px" font-style="normal" font-weight="bold" text-decoration="none" x="156.20458984375" y="94.5">CruiseControlOffState</text></g></g><g transform="translate(-3,-10) scale(1,1)"><path fill="none" stroke="#000000" d="M 219 74 Q 220 60 424 39" stroke-miterlimit="10"/></g><g transform="translate(-3,-10) scale(1,1)"><path fill="#FFFFFF" stroke="none" d="M 404.64360419243644 49.45609589382846 L 424 39 L 402.919384953878 32.706537576403875"/></g><g transform="translate(-3,-10) scale(1,1)"><path fill="none" stroke="#000000" d="M 404.64360419243644 49.45609589382846 L 424 39 L 402.919384953878 32.706537576403875 L 404.64360419243644 49.45609589382846" stroke-miterlimit="10"/></g><g transform="translate(-3,-10) scale(1,1)"><rect fill="#C0C0C0" stroke="none" x="330.90087890625" y="82" width="147.68994140625" height="24" opacity="0.2"/></g><g transform="translate(-3,-10) scale(1,1)"><rect fill="#ffffff" stroke="none" x="323.90087890625" y="75" width="147.68994140625" height="24"/></g><g transform="translate(-3,-10) scale(1,1)"><path fill="none" stroke="#000000" d="M 323.90087890625 75 L 471.5908203125 75 L 471.5908203125 99 L 323.90087890625 99 L 323.90087890625 75 Z Z" stroke-miterlimit="10"/></g><g transform="translate(-3,-10) scale(1,1)"><g><path fill="none" stroke="none"/><text fill="#000000" stroke="none" font-family="Arial" font-size="13px" font-style="normal" font-weight="bold" text-decoration="none" x="333.075927734375" y="94.5">CruiseControlSetState</text></g></g><g transform="translate(-3,-10) scale(1,1)"><path fill="none" stroke="#000000" d="M 397 74 Q 398 60 446 45" stroke-miterlimit="10"/></g><g transform="translate(-3,-10) scale(1,1)"><path fill="#FFFFFF" stroke="none" d="M 429.1110484097981 59.09834437740183 L 446 45 L 424.08867289067285 43.026742716201"/></g><g transform="translate(-3,-10) scale(1,1)"><path fill="none" stroke="#000000" d="M 429.1110484097981 59.09834437740183 L 446 45 L 424.08867289067285 43.026742716201 L 429.1110484097981 59.09834437740183" stroke-miterlimit="10"/></g><g transform="translate(-3,-10) scale(1,1)"><rect fill="#C0C0C0" stroke="none" x="509.5908203125" y="82" width="154.90087890625" height="24" opacity="0.2"/></g><g transform="translate(-3,-10) scale(1,1)"><rect fill="#ffffff" stroke="none" x="502.5908203125" y="75" width="154.90087890625" height="24"/></g><g transform="translate(-3,-10) scale(1,1)"><path fill="none" stroke="#000000" d="M 502.5908203125 75 L 657.49169921875 75 L 657.49169921875 99 L 502.5908203125 99 L 502.5908203125 75 Z Z" stroke-miterlimit="10"/></g><g transform="translate(-3,-10) scale(1,1)"><g><path fill="none" stroke="none"/><text fill="#000000" stroke="none" font-family="Arial" font-size="13px" font-style="normal" font-weight="bold" text-decoration="none" x="512.127685546875" y="94.5">CruiseControlWaitState</text></g></g><g transform="translate(-3,-10) scale(1,1)"><path fill="none" stroke="#000000" d="M 580 74 Q 581 60 531 45" stroke-miterlimit="10"/></g><g transform="translate(-3,-10) scale(1,1)"><path fill="#FFFFFF" stroke="none" d="M 552.8873462664675 42.77647275443858 L 531 45 L 548.0489621606868 58.90441977370766"/></g><g transform="translate(-3,-10) scale(1,1)"><path fill="none" stroke="#000000" d="M 552.8873462664675 42.77647275443858 L 531 45 L 548.0489621606868 58.90441977370766 L 552.8873462664675 42.77647275443858" stroke-miterlimit="10"/></g><g transform="translate(-3,-10) scale(1,1)"><rect fill="#C0C0C0" stroke="none" x="695.49169921875" y="82" width="151.30810546875" height="24" opacity="0.2"/></g><g transform="translate(-3,-10) scale(1,1)"><rect fill="#ffffff" stroke="none" x="688.49169921875" y="75" width="151.30810546875" height="24"/></g><g transform="translate(-3,-10) scale(1,1)"><path fill="none" stroke="#000000" d="M 688.49169921875 75 L 839.7998046875 75 L 839.7998046875 99 L 688.49169921875 99 L 688.49169921875 75 Z Z" stroke-miterlimit="10"/></g><g transform="translate(-3,-10) scale(1,1)"><g><path fill="none" stroke="none"/><text fill="#000000" stroke="none" font-family="Arial" font-size="13px" font-style="normal" font-weight="bold" text-decoration="none" x="698.396728515625" y="94.5">CruiseControlAccState</text></g></g><g transform="translate(-3,-10) scale(1,1)"><path fill="none" stroke="#000000" d="M 764 74 Q 765 60 554 39" stroke-miterlimit="10"/></g><g transform="translate(-3,-10) scale(1,1)"><path fill="#FFFFFF" stroke="none" d="M 575.0592198192594 32.635311429134035 L 554 39 L 573.3916315892963 49.39060269209663"/></g><g transform="translate(-3,-10) scale(1,1)"><path fill="none" stroke="#000000" d="M 575.0592198192594 32.635311429134035 L 554 39 L 573.3916315892963 49.39060269209663 L 575.0592198192594 32.635311429134035" stroke-miterlimit="10"/></g><g transform="translate(-3,-10) scale(1,1)"><rect fill="#C0C0C0" stroke="none" x="877.7998046875" y="82" width="166.47900390625" height="24" opacity="0.2"/></g><g transform="translate(-3,-10) scale(1,1)"><rect fill="#ffffff" stroke="none" x="870.7998046875" y="75" width="166.47900390625" height="24"/></g><g transform="translate(-3,-10) scale(1,1)"><path fill="none" stroke="#000000" d="M 870.7998046875 75 L 1037.27880859375 75 L 1037.27880859375 99 L 870.7998046875 99 L 870.7998046875 75 Z Z" stroke-miterlimit="10"/></g><g transform="translate(-3,-10) scale(1,1)"><g><path fill="none" stroke="none"/><text fill="#000000" stroke="none" font-family="Arial" font-size="13px" font-style="normal" font-weight="bold" text-decoration="none" x="880.336669921875" y="94.5">CruiseControlReadyState</text></g></g><g transform="translate(-3,-10) scale(1,1)"><path fill="none" stroke="#000000" d="M 954 74 Q 955 60 554 36" stroke-miterlimit="10"/></g><g transform="translate(-3,-10) scale(1,1)"><path fill="#FFFFFF" stroke="none" d="M 574.7920262103186 28.810309737587687 L 554 36 L 573.7860614671073 45.61830398874204"/></g><g transform="translate(-3,-10) scale(1,1)"><path fill="none" stroke="#000000" d="M 574.7920262103186 28.810309737587687 L 554 36 L 573.7860614671073 45.61830398874204 L 574.7920262103186 28.810309737587687" stroke-miterlimit="10"/></g></g></svg>