<svg version="1.1" xmlns="http://www.w3.org/2000/svg" xmlns:xlink="http://www.w3.org/1999/xlink" width="1098.47900390625" height="556"><defs/><g><g transform="translate(-798,-1998) scale(1,1)"><rect fill="#ffffff" stroke="none" x="808" y="2032" width="150.525390625" height="144"/></g><g transform="translate(-798,-1998) scale(1,1)"><path fill="none" stroke="#000000" d="M 808 2032 L 958.525390625 2032 L 958.525390625 2176 L 808 2176 L 808 2032 Z Z" stroke-miterlimit="10"/></g><g transform="translate(-798,-1998) scale(1,1)"><path fill="none" stroke="#000000" d="M 808 2057 L 958.525390625 2057" stroke-miterlimit="10"/></g><g transform="translate(-798,-1998) scale(1,1)"><path fill="none" stroke="#000000" d="M 808 2080 L 958.525390625 2080" stroke-miterlimit="10"/></g><g transform="translate(-798,-1998) scale(1,1)"><g><path fill="none" stroke="none"/><text fill="#000000" stroke="none" font-family="Arial" font-size="13px" font-style="normal" font-weight="bold" text-decoration="none" x="861.944091796875" y="2051.5">Vehicel</text></g></g><g transform="translate(-798,-1998) scale(1,1)"><g><path fill="none" stroke="none"/><text fill="#000000" stroke="none" font-family="Arial" font-size="13px" font-style="normal" font-weight="normal" text-decoration="none" x="813" y="2074.5">+currentSpeed</text></g></g><g transform="translate(-798,-1998) scale(1,1)"><g><path fill="none" stroke="none"/><text fill="#000000" stroke="none" font-family="Arial" font-size="13px" font-style="normal" font-weight="normal" text-decoration="none" x="813" y="2097.5">+handleUserInput()</text></g></g><g transform="translate(-798,-1998) scale(1,1)"><rect fill="#ffffff" stroke="none" x="1072" y="2008" width="176" height="190"/></g><g transform="translate(-798,-1998) scale(1,1)"><path fill="none" stroke="#000000" d="M 1072 2008 L 1248 2008 L 1248 2198 L 1072 2198 L 1072 2008 Z Z" stroke-miterlimit="10"/></g><g transform="translate(-798,-1998) scale(1,1)"><path fill="none" stroke="#000000" d="M 1072 2033 L 1248 2033" stroke-miterlimit="10"/></g><g transform="translate(-798,-1998) scale(1,1)"><path fill="none" stroke="#000000" d="M 1072 2056 L 1248 2056" stroke-miterlimit="10"/></g><g transform="translate(-798,-1998) scale(1,1)"><g><path fill="none" stroke="none"/><text fill="#000000" stroke="none" font-family="Arial" font-size="13px" font-style="normal" font-weight="bold" text-decoration="none" x="1120.263671875" y="2027.5">CruiseControl</text></g></g><g transform="translate(-798,-1998) scale(1,1)"><g><path fill="none" stroke="none"/><text fill="#000000" stroke="none" font-family="Arial" font-size="13px" font-style="normal" font-weight="normal" text-decoration="none" x="1077" y="2050.5">-cruiseSpeed</text></g></g><g transform="translate(-798,-1998) scale(1,1)"><g><path fill="none" stroke="none"/><text fill="#000000" stroke="none" font-family="Arial" font-size="13px" font-style="normal" font-weight="normal" text-decoration="none" x="1077" y="2073.5">+handleAction()</text></g></g><g transform="translate(-798,-1998) scale(1,1)"><g><path fill="none" stroke="none"/><text fill="#000000" stroke="none" font-family="Arial" font-size="13px" font-style="normal" font-weight="normal" text-decoration="none" x="1077" y="2088.5">+getStatus()</text></g></g><g transform="translate(-798,-1998) scale(1,1)"><g><path fill="none" stroke="none"/><text fill="#000000" stroke="none" font-family="Arial" font-size="13px" font-style="normal" font-weight="normal" text-decoration="none" x="1077" y="2103.5">-actionOn()</text></g></g><g transform="translate(-798,-1998) scale(1,1)"><g><path fill="none" stroke="none"/><text fill="#000000" stroke="none" font-family="Arial" font-size="13px" font-style="normal" font-weight="normal" text-decoration="none" x="1077" y="2118.5">-actionSet()</text></g></g><g transform="translate(-798,-1998) scale(1,1)"><g><path fill="none" stroke="none"/><text fill="#000000" stroke="none" font-family="Arial" font-size="13px" font-style="normal" font-weight="normal" text-decoration="none" x="1077" y="2133.5">-actionResume()</text></g></g><g transform="translate(-798,-1998) scale(1,1)"><g><path fill="none" stroke="none"/><text fill="#000000" stroke="none" font-family="Arial" font-size="13px" font-style="normal" font-weight="normal" text-decoration="none" x="1077" y="2148.5">-actionBrake()</text></g></g><g transform="translate(-798,-1998) scale(1,1)"><g><path fill="none" stroke="none"/><text fill="#000000" stroke="none" font-family="Arial" font-size="13px" font-style="normal" font-weight="normal" text-decoration="none" x="1077" y="2163.5">-actionAccPressed()</text></g></g><g transform="translate(-798,-1998) scale(1,1)"><g><path fill="none" stroke="none"/><text fill="#000000" stroke="none" font-family="Arial" font-size="13px" font-style="normal" font-weight="normal" text-decoration="none" x="1077" y="2178.5">-actionAccReleased()</text></g></g><g transform="translate(-798,-1998) scale(1,1)"><rect fill="#ffffff" stroke="none" x="1384" y="2024" width="154.59619140625" height="156"/></g><g transform="translate(-798,-1998) scale(1,1)"><path fill="none" stroke="#000000" d="M 1384 2024 L 1538.59619140625 2024 L 1538.59619140625 2180 L 1384 2180 L 1384 2024 Z Z" stroke-miterlimit="10"/></g><g transform="translate(-798,-1998) scale(1,1)"><path fill="none" stroke="#000000" d="M 1384 2049 L 1538.59619140625 2049" stroke-miterlimit="10"/></g><g transform="translate(-798,-1998) scale(1,1)"><path fill="none" stroke="#000000" d="M 1384 2059 L 1538.59619140625 2059" stroke-miterlimit="10"/></g><g transform="translate(-798,-1998) scale(1,1)"><g><path fill="none" stroke="none"/><text fill="#000000" stroke="none" font-family="Arial" font-size="13px" font-style="normal" font-weight="bold" text-decoration="none" x="1406.384521484375" y="2043.5">CruiseControlState</text></g></g><g transform="translate(-798,-1998) scale(1,1)"><g><path fill="none" stroke="none"/><text fill="#000000" stroke="none" font-family="Arial" font-size="13px" font-style="normal" font-weight="normal" text-decoration="none" x="1389" y="2076.5">+transitionOn()</text></g></g><g transform="translate(-798,-1998) scale(1,1)"><g><path fill="none" stroke="none"/><text fill="#000000" stroke="none" font-family="Arial" font-size="13px" font-style="normal" font-weight="normal" text-decoration="none" x="1389" y="2091.5">+transitionSet()</text></g></g><g transform="translate(-798,-1998) scale(1,1)"><g><path fill="none" stroke="none"/><text fill="#000000" stroke="none" font-family="Arial" font-size="13px" font-style="normal" font-weight="normal" text-decoration="none" x="1389" y="2106.5">+transitionResume()</text></g></g><g transform="translate(-798,-1998) scale(1,1)"><g><path fill="none" stroke="none"/><text fill="#000000" stroke="none" font-family="Arial" font-size="13px" font-style="normal" font-weight="normal" text-decoration="none" x="1389" y="2121.5">+transitionBrake()</text></g></g><g transform="translate(-798,-1998) scale(1,1)"><g><path fill="none" stroke="none"/><text fill="#000000" stroke="none" font-family="Arial" font-size="13px" font-style="normal" font-weight="normal" text-decoration="none" x="1389" y="2136.5">+transitionAccPressed()</text></g></g><g transform="translate(-798,-1998) scale(1,1)"><g><path fill="none" stroke="none"/><text fill="#000000" stroke="none" font-family="Arial" font-size="13px" font-style="normal" font-weight="normal" text-decoration="none" x="1389" y="2151.5">+transitionAccReleased()</text></g></g><g transform="translate(-798,-1998) scale(1,1)"><path fill="none" stroke="#000000" d="M 1249 2103 L 1383 2102" stroke-miterlimit="10"/></g><g transform="translate(-798,-1998) scale(1,1)"><path fill="#FFFFFF" stroke="none" d="M 1372.8690215557199 2106.285239288713 L 1383 2102 L 1372.8061946819387 2097.8664382020506 L 1361.000612583012 2102.1641745329625"/></g><g transform="translate(-798,-1998) scale(1,1)"><path fill="none" stroke="#000000" d="M 1372.8690215557199 2106.285239288713 L 1383 2102 L 1372.8061946819387 2097.8664382020506 L 1361.000612583012 2102.1641745329625 L 1372.8690215557199 2106.285239288713" stroke-miterlimit="10"/></g><g transform="translate(-798,-1998) scale(1,1)"><g><path fill="none" stroke="none"/><text fill="#000000" stroke="none" font-family="Arial" font-size="13px" font-style="normal" font-weight="normal" text-decoration="none" x="1271.5" y="2093.5">-currentState</text></g></g><g transform="translate(-798,-1998) scale(1,1)"><rect fill="#ffffff" stroke="none" x="1192" y="2288" width="146.22998046875" height="57"/></g><g transform="translate(-798,-1998) scale(1,1)"><path fill="none" stroke="#000000" d="M 1192 2288 L 1338.22998046875 2288 L 1338.22998046875 2345 L 1192 2345 L 1192 2288 Z Z" stroke-miterlimit="10"/></g><g transform="translate(-798,-1998) scale(1,1)"><path fill="none" stroke="#000000" d="M 1192 2313 L 1338.22998046875 2313" stroke-miterlimit="10"/></g><g transform="translate(-798,-1998) scale(1,1)"><path fill="none" stroke="#000000" d="M 1192 2323 L 1338.22998046875 2323" stroke-miterlimit="10"/></g><g transform="translate(-798,-1998) scale(1,1)"><g><path fill="none" stroke="none"/><text fill="#000000" stroke="none" font-family="Arial" font-size="13px" font-style="normal" font-weight="bold" text-decoration="none" x="1201.53369140625" y="2307.5">CruiseControlOffState</text></g></g><g transform="translate(-798,-1998) scale(1,1)"><g><path fill="none" stroke="none"/><text fill="#000000" stroke="none" font-family="Arial" font-size="13px" font-style="normal" font-weight="normal" text-decoration="none" x="1197" y="2340.5">+transitionOn()</text></g></g><g transform="translate(-798,-1998) scale(1,1)"><path fill="none" stroke="#000000" d="M 1292 2287 L 1389 2181" stroke-miterlimit="10"/></g><g transform="translate(-798,-1998) scale(1,1)"><path fill="#FFFFFF" stroke="none" d="M 1381.4894660587283 2201.6782948986856 L 1389 2181 L 1369.0674879735593 2190.3110130660307"/></g><g transform="translate(-798,-1998) scale(1,1)"><path fill="none" stroke="#000000" d="M 1381.4894660587283 2201.6782948986856 L 1389 2181 L 1369.0674879735593 2190.3110130660307 L 1381.4894660587283 2201.6782948986856" stroke-miterlimit="10"/></g><g transform="translate(-798,-1998) scale(1,1)"><rect fill="#ffffff" stroke="none" x="1160" y="2472" width="147.68994140625" height="72"/></g><g transform="translate(-798,-1998) scale(1,1)"><path fill="none" stroke="#000000" d="M 1160 2472 L 1307.68994140625 2472 L 1307.68994140625 2544 L 1160 2544 L 1160 2472 Z Z" stroke-miterlimit="10"/></g><g transform="translate(-798,-1998) scale(1,1)"><path fill="none" stroke="#000000" d="M 1160 2497 L 1307.68994140625 2497" stroke-miterlimit="10"/></g><g transform="translate(-798,-1998) scale(1,1)"><path fill="none" stroke="#000000" d="M 1160 2507 L 1307.68994140625 2507" stroke-miterlimit="10"/></g><g transform="translate(-798,-1998) scale(1,1)"><g><path fill="none" stroke="none"/><text fill="#000000" stroke="none" font-family="Arial" font-size="13px" font-style="normal" font-weight="bold" text-decoration="none" x="1169.175048828125" y="2491.5">CruiseControlSetState</text></g></g><g transform="translate(-798,-1998) scale(1,1)"><g><path fill="none" stroke="none"/><text fill="#000000" stroke="none" font-family="Arial" font-size="13px" font-style="normal" font-weight="normal" text-decoration="none" x="1165" y="2524.5">+transitionAccPressed()</text></g></g><g transform="translate(-798,-1998) scale(1,1)"><g><path fill="none" stroke="none"/><text fill="#000000" stroke="none" font-family="Arial" font-size="13px" font-style="normal" font-weight="normal" text-decoration="none" x="1165" y="2539.5">+transitionBrake()</text></g></g><g transform="translate(-798,-1998) scale(1,1)"><path fill="none" stroke="#000000" d="M 1284 2471 L 1457 2346" stroke-miterlimit="10"/></g><g transform="translate(-798,-1998) scale(1,1)"><path fill="#FFFFFF" stroke="none" d="M 1445.455878545527 2364.7278738741047 L 1457 2346 L 1435.5944668231152 2351.0796800502867"/></g><g transform="translate(-798,-1998) scale(1,1)"><path fill="none" stroke="#000000" d="M 1445.455878545527 2364.7278738741047 L 1457 2346 L 1435.5944668231152 2351.0796800502867 L 1445.455878545527 2364.7278738741047" stroke-miterlimit="10"/></g><g transform="translate(-798,-1998) scale(1,1)"><rect fill="#ffffff" stroke="none" x="1336" y="2472" width="154.90087890625" height="57"/></g><g transform="translate(-798,-1998) scale(1,1)"><path fill="none" stroke="#000000" d="M 1336 2472 L 1490.90087890625 2472 L 1490.90087890625 2529 L 1336 2529 L 1336 2472 Z Z" stroke-miterlimit="10"/></g><g transform="translate(-798,-1998) scale(1,1)"><path fill="none" stroke="#000000" d="M 1336 2497 L 1490.90087890625 2497" stroke-miterlimit="10"/></g><g transform="translate(-798,-1998) scale(1,1)"><path fill="none" stroke="#000000" d="M 1336 2507 L 1490.90087890625 2507" stroke-miterlimit="10"/></g><g transform="translate(-798,-1998) scale(1,1)"><g><path fill="none" stroke="none"/><text fill="#000000" stroke="none" font-family="Arial" font-size="13px" font-style="normal" font-weight="bold" text-decoration="none" x="1345.536865234375" y="2491.5">CruiseControlWaitState</text></g></g><g transform="translate(-798,-1998) scale(1,1)"><g><path fill="none" stroke="none"/><text fill="#000000" stroke="none" font-family="Arial" font-size="13px" font-style="normal" font-weight="normal" text-decoration="none" x="1341" y="2524.5">+transitionResume()</text></g></g><g transform="translate(-798,-1998) scale(1,1)"><path fill="none" stroke="#000000" d="M 1427 2471 L 1485 2346" stroke-miterlimit="10"/></g><g transform="translate(-798,-1998) scale(1,1)"><path fill="#FFFFFF" stroke="none" d="M 1484.0820732106115 2367.9808418949165 L 1485 2346 L 1468.8081253825058 2360.8937301026754"/></g><g transform="translate(-798,-1998) scale(1,1)"><path fill="none" stroke="#000000" d="M 1484.0820732106115 2367.9808418949165 L 1485 2346 L 1468.8081253825058 2360.8937301026754 L 1484.0820732106115 2367.9808418949165" stroke-miterlimit="10"/></g><g transform="translate(-798,-1998) scale(1,1)"><rect fill="#ffffff" stroke="none" x="1536" y="2472" width="154.59619140625" height="57"/></g><g transform="translate(-798,-1998) scale(1,1)"><path fill="none" stroke="#000000" d="M 1536 2472 L 1690.59619140625 2472 L 1690.59619140625 2529 L 1536 2529 L 1536 2472 Z Z" stroke-miterlimit="10"/></g><g transform="translate(-798,-1998) scale(1,1)"><path fill="none" stroke="#000000" d="M 1536 2497 L 1690.59619140625 2497" stroke-miterlimit="10"/></g><g transform="translate(-798,-1998) scale(1,1)"><path fill="none" stroke="#000000" d="M 1536 2507 L 1690.59619140625 2507" stroke-miterlimit="10"/></g><g transform="translate(-798,-1998) scale(1,1)"><g><path fill="none" stroke="none"/><text fill="#000000" stroke="none" font-family="Arial" font-size="13px" font-style="normal" font-weight="bold" text-decoration="none" x="1547.549072265625" y="2491.5">CruiseControlAccState</text></g></g><g transform="translate(-798,-1998) scale(1,1)"><g><path fill="none" stroke="none"/><text fill="#000000" stroke="none" font-family="Arial" font-size="13px" font-style="normal" font-weight="normal" text-decoration="none" x="1541" y="2524.5">+transitionAccReleased()</text></g></g><g transform="translate(-798,-1998) scale(1,1)"><path fill="none" stroke="#000000" d="M 1595 2471 L 1518 2346" stroke-miterlimit="10"/></g><g transform="translate(-798,-1998) scale(1,1)"><path fill="#FFFFFF" stroke="none" d="M 1535.8283587020178 2358.8899040334745 L 1518 2346 L 1521.4920147847092 2367.7210918865367"/></g><g transform="translate(-798,-1998) scale(1,1)"><path fill="none" stroke="#000000" d="M 1535.8283587020178 2358.8899040334745 L 1518 2346 L 1521.4920147847092 2367.7210918865367 L 1535.8283587020178 2358.8899040334745" stroke-miterlimit="10"/></g><g transform="translate(-798,-1998) scale(1,1)"><rect fill="#ffffff" stroke="none" x="1720" y="2472" width="166.47900390625" height="64"/></g><g transform="translate(-798,-1998) scale(1,1)"><path fill="none" stroke="#000000" d="M 1720 2472 L 1886.47900390625 2472 L 1886.47900390625 2536 L 1720 2536 L 1720 2472 Z Z" stroke-miterlimit="10"/></g><g transform="translate(-798,-1998) scale(1,1)"><path fill="none" stroke="#000000" d="M 1720 2497 L 1886.47900390625 2497" stroke-miterlimit="10"/></g><g transform="translate(-798,-1998) scale(1,1)"><path fill="none" stroke="#000000" d="M 1720 2507 L 1886.47900390625 2507" stroke-miterlimit="10"/></g><g transform="translate(-798,-1998) scale(1,1)"><g><path fill="none" stroke="none"/><text fill="#000000" stroke="none" font-family="Arial" font-size="13px" font-style="normal" font-weight="bold" text-decoration="none" x="1729.536865234375" y="2491.5">CruiseControlReadyState</text></g></g><g transform="translate(-798,-1998) scale(1,1)"><g><path fill="none" stroke="none"/><text fill="#000000" stroke="none" font-family="Arial" font-size="13px" font-style="normal" font-weight="normal" text-decoration="none" x="1725" y="2524.5">+transitionSet()</text></g></g><g transform="translate(-798,-1998) scale(1,1)"><path fill="none" stroke="#000000" d="M 1750 2471 L 1548 2346" stroke-miterlimit="10"/></g><g transform="translate(-798,-1998) scale(1,1)"><path fill="#FFFFFF" stroke="none" d="M 1569.713937696816 2349.5362281740286 L 1548 2346 L 1560.8535816700023 2363.854563513359"/></g><g transform="translate(-798,-1998) scale(1,1)"><path fill="none" stroke="#000000" d="M 1569.713937696816 2349.5362281740286 L 1548 2346 L 1560.8535816700023 2363.854563513359 L 1569.713937696816 2349.5362281740286" stroke-miterlimit="10"/></g><g transform="translate(-798,-1998) scale(1,1)"><path fill="none" stroke="#000000" d="M 960 2104 L 1071 2103" stroke-miterlimit="10"/></g><g transform="translate(-798,-1998) scale(1,1)"><path fill="#000000" stroke="none" d="M 1060.8756595745178 2107.3008988536058 L 1071 2103 L 1060.7998154855184 2098.8822049746823 L 1049.000892730335 2103.198190155583"/></g><g transform="translate(-798,-1998) scale(1,1)"><path fill="none" stroke="#000000" d="M 1060.8756595745178 2107.3008988536058 L 1071 2103 L 1060.7998154855184 2098.8822049746823 L 1049.000892730335 2103.198190155583 L 1060.8756595745178 2107.3008988536058" stroke-miterlimit="10"/></g><g transform="translate(-798,-1998) scale(1,1)"><g><path fill="none" stroke="none"/><text fill="#000000" stroke="none" font-family="Arial" font-size="13px" font-style="normal" font-weight="normal" text-decoration="none" x="974.13134765625" y="2094.5">-cruiseControl</text></g></g><g transform="translate(-798,-1998) scale(1,1)"><rect fill="#ffffff" stroke="none" x="1416" y="2288" width="166.47900390625" height="57"/></g><g transform="translate(-798,-1998) scale(1,1)"><path fill="none" stroke="#000000" d="M 1416 2288 L 1582.47900390625 2288 L 1582.47900390625 2345 L 1416 2345 L 1416 2288 Z Z" stroke-miterlimit="10"/></g><g transform="translate(-798,-1998) scale(1,1)"><path fill="none" stroke="#000000" d="M 1416 2313 L 1582.47900390625 2313" stroke-miterlimit="10"/></g><g transform="translate(-798,-1998) scale(1,1)"><path fill="none" stroke="#000000" d="M 1416 2323 L 1582.47900390625 2323" stroke-miterlimit="10"/></g><g transform="translate(-798,-1998) scale(1,1)"><g><path fill="none" stroke="none"/><text fill="#000000" stroke="none" font-family="Arial" font-size="13px" font-style="normal" font-weight="bold" text-decoration="none" x="1426.62548828125" y="2307.5">CruiseControlActiveState</text></g></g><g transform="translate(-798,-1998) scale(1,1)"><g><path fill="none" stroke="none"/><text fill="#000000" stroke="none" font-family="Arial" font-size="13px" font-style="normal" font-weight="normal" text-decoration="none" x="1421" y="2340.5">+transitionOn()</text></g></g><g transform="translate(-798,-1998) scale(1,1)"><path fill="none" stroke="#000000" d="M 1494 2287 L 1475 2181" stroke-miterlimit="10"/></g><g transform="translate(-798,-1998) scale(1,1)"><path fill="#FFFFFF" stroke="none" d="M 1486.8730328863642 2199.5210985116787 L 1475 2181 L 1470.2991077145668 2202.4918964198314"/></g><g transform="translate(-798,-1998) scale(1,1)"><path fill="none" stroke="#000000" d="M 1486.8730328863642 2199.5210985116787 L 1475 2181 L 1470.2991077145668 2202.4918964198314 L 1486.8730328863642 2199.5210985116787" stroke-miterlimit="10"/></g></g></svg>